<svg xmlns:xlink="http://www.w3.org/1999/xlink" xmlns="http://www.w3.org/2000/svg" viewBox="0 0 24 24" preserveAspectRatio="xMidYMid meet" focusable="false" class="style-scope yt-icon" style="pointer-events: none; display: block; width: 100%; height: 100%;" width="24"  height="24" ><g class="style-scope yt-icon" fill="#FFFFFF"><path d="M14.97,16.95L10,13.87V7h2v5.76l4.03,2.49L14.97,16.95z M22,12c0,5.51-4.49,10-10,10S2,17.51,2,12h1c0,4.96,4.04,9,9,9 s9-4.04,9-9s-4.04-9-9-9C8.81,3,5.92,4.64,4.28,7.38C4.17,7.56,4.06,7.75,3.97,7.94C3.96,7.96,3.95,7.98,3.94,8H8v1H1.96V3h1v4.74 C3,7.65,3.03,7.57,3.07,7.49C3.18,7.27,3.3,7.07,3.42,6.86C5.22,3.86,8.51,2,12,2C17.51,2,22,6.49,22,12z" class="style-scope yt-icon" fill="#FFFFFF"></path></g></svg>